<svg width="23" height="18" viewBox="0 0 23 18" fill="none" xmlns="http://www.w3.org/2000/svg">
<path d="M20.875 0.875H2.125C1.7106 0.875 1.31317 1.0462 1.02015 1.35095C0.72712 1.6557 0.5625 2.06902 0.5625 2.5V15.5C0.5625 15.931 0.72712 16.3443 1.02015 16.649C1.31317 16.9538 1.7106 17.125 2.125 17.125H20.875C21.2894 17.125 21.6868 16.9538 21.9799 16.649C22.2729 16.3443 22.4375 15.931 22.4375 15.5V2.5C22.4375 2.06902 22.2729 1.6557 21.9799 1.35095C21.6868 1.0462 21.2894 0.875 20.875 0.875V0.875ZM19.1562 2.5L11.5 8.00875L3.84375 2.5H19.1562ZM2.125 15.5V3.23937L11.0547 9.66625C11.1855 9.7606 11.3408 9.81116 11.5 9.81116C11.6592 9.81116 11.8145 9.7606 11.9453 9.66625L20.875 3.23937V15.5H2.125Z" fill="#FFD233"/>
</svg>
