<svg width="25" height="25" viewBox="0 0 25 35" fill="none" xmlns="http://www.w3.org/2000/svg">
<path d="M24.2969 8.31968C24.2448 8.17623 24.1536 7.94912 24.0234 7.63832C23.8932 7.32753 23.8021 7.12432 23.75 7.02869C22.6562 4.6858 21.0547 2.95253 18.9453 1.8289C16.8359 0.705265 14.6354 0.143448 12.3437 0.143448C9.375 0.143448 6.69271 1.03996 4.29687 2.833C1.90104 4.62603 0.494792 7.14823 0.078125 10.3996V11.7623L0.15625 12.1209V12.623C0.260417 13.388 0.533854 14.2606 0.976562 15.2408C1.41927 16.221 1.82292 17.0099 2.1875 17.6076C2.55208 18.2053 3.13802 19.1137 3.94531 20.333C4.7526 21.5523 5.28646 22.3531 5.54687 22.7357C7.05729 25.0786 9.375 28.5451 12.5 33.1353C12.9167 32.5137 14.349 30.2664 16.7969 26.3934C16.901 26.25 17.0964 25.9631 17.3828 25.5328C17.6693 25.1025 17.8646 24.7678 17.9687 24.5287C18.0729 24.3853 18.2422 24.182 18.4766 23.9191C18.7109 23.6561 18.8802 23.4529 18.9844 23.3094C19.349 22.6878 20.1432 21.5044 21.3672 19.7592C22.5911 18.014 23.4896 16.5437 24.0625 15.3484C24.6354 14.153 24.9219 12.9816 24.9219 11.834V10.2562C24.9219 9.7302 24.7135 9.0847 24.2969 8.31968ZM12.4219 15.4201C10.3906 15.4201 8.98437 14.5116 8.20312 12.6947C8.15104 12.4556 8.125 12.097 8.125 11.6189V10.6865C8.125 9.49113 8.56771 8.5707 9.45312 7.92521C10.3385 7.27972 11.3802 6.95697 12.5781 6.95697C13.8802 6.95697 14.9609 7.36339 15.8203 8.17623C16.6797 8.98908 17.1094 9.99317 17.1094 11.1885C17.1094 12.3839 16.6536 13.388 15.7422 14.2008C14.8307 15.0137 13.724 15.4201 12.4219 15.4201Z" fill="#FFD233"/>
</svg>
